# Blender 3.3.0
# www.blender.org
mtllib booster.mtl
o ì›ë¿”
v 13.000000 -0.500000 11.545657
v 13.487726 -0.548037 11.545657
v 13.956709 -0.690301 11.545657
v 14.388926 -0.921326 11.545657
v 14.767767 -1.232233 11.545657
v 15.078674 -1.611074 11.545657
v 15.309699 -2.043291 11.545657
v 15.451963 -2.512274 11.545657
v 15.500000 -3.000000 11.545657
v 15.451963 -3.487726 11.545657
v 15.309699 -3.956708 11.545657
v 15.078674 -4.388926 11.545657
v 14.767767 -4.767767 11.545657
v 14.388926 -5.078674 11.545657
v 13.956709 -5.309699 11.545657
v 13.487726 -5.451963 11.545657
v 13.000000 -5.500000 11.545657
v 12.512274 -5.451963 11.545657
v 12.043291 -5.309699 11.545657
v 11.611074 -5.078674 11.545657
v 11.232233 -4.767767 11.545657
v 10.921326 -4.388926 11.545657
v 10.690301 -3.956708 11.545657
v 10.548037 -3.487726 11.545657
v 10.500000 -3.000000 11.545657
v 10.548037 -2.512274 11.545657
v 10.690301 -2.043291 11.545657
v 10.921326 -1.611074 11.545657
v 11.232233 -1.232233 11.545657
v 11.611074 -0.921326 11.545657
v 12.043291 -0.690301 11.545657
v 12.512274 -0.548037 11.545657
v 13.000000 -3.000000 17.545658
v -13.000002 -0.500000 11.545658
v -12.512276 -0.548037 11.545658
v -12.043293 -0.690301 11.545658
v -11.611074 -0.921326 11.545658
v -11.232235 -1.232233 11.545658
v -10.921328 -1.611074 11.545658
v -10.690302 -2.043291 11.545658
v -10.548038 -2.512274 11.545658
v -10.500002 -3.000000 11.545658
v -10.548038 -3.487726 11.545658
v -10.690302 -3.956708 11.545658
v -10.921328 -4.388926 11.545658
v -11.232235 -4.767767 11.545658
v -11.611074 -5.078674 11.545658
v -12.043293 -5.309699 11.545658
v -12.512276 -5.451963 11.545658
v -13.000002 -5.500000 11.545658
v -13.487728 -5.451963 11.545658
v -13.956711 -5.309699 11.545658
v -14.388927 -5.078674 11.545658
v -14.767769 -4.767767 11.545658
v -15.078674 -4.388926 11.545658
v -15.309700 -3.956708 11.545658
v -15.451965 -3.487726 11.545658
v -15.500002 -3.000000 11.545658
v -15.451965 -2.512274 11.545658
v -15.309700 -2.043291 11.545658
v -15.078674 -1.611074 11.545658
v -14.767769 -1.232233 11.545658
v -14.388927 -0.921326 11.545658
v -13.956711 -0.690301 11.545658
v -13.487728 -0.548037 11.545658
v -13.000002 -3.000000 17.545658
vn 0.0905 0.9193 0.3830
vn 0.2681 0.8840 0.3830
vn 0.4354 0.8147 0.3830
vn 0.5860 0.7141 0.3830
vn 0.7141 0.5860 0.3830
vn 0.8147 0.4354 0.3830
vn 0.8840 0.2681 0.3830
vn 0.9193 0.0905 0.3830
vn 0.9193 -0.0905 0.3830
vn 0.8840 -0.2681 0.3830
vn 0.8147 -0.4354 0.3830
vn 0.7141 -0.5860 0.3830
vn 0.5860 -0.7141 0.3830
vn 0.4354 -0.8147 0.3830
vn 0.2681 -0.8840 0.3830
vn 0.0905 -0.9193 0.3830
vn -0.0905 -0.9193 0.3830
vn -0.2681 -0.8840 0.3830
vn -0.4354 -0.8147 0.3830
vn -0.5860 -0.7141 0.3830
vn -0.7141 -0.5860 0.3830
vn -0.8147 -0.4354 0.3830
vn -0.8840 -0.2681 0.3830
vn -0.9193 -0.0905 0.3830
vn -0.9193 0.0905 0.3830
vn -0.8840 0.2681 0.3830
vn -0.8147 0.4354 0.3830
vn -0.7141 0.5860 0.3830
vn -0.5860 0.7141 0.3830
vn -0.4354 0.8147 0.3830
vn -0.0000 -0.0000 -1.0000
vn -0.2681 0.8840 0.3830
vn -0.0905 0.9193 0.3830
vt 0.750000 0.490000
vt 0.250000 0.490000
vt 0.296822 0.485388
vt 0.796822 0.485388
vt 0.341844 0.471731
vt 0.841844 0.471731
vt 0.383337 0.449553
vt 0.883337 0.449553
vt 0.419706 0.419706
vt 0.919706 0.419706
vt 0.449553 0.383337
vt 0.949553 0.383337
vt 0.471731 0.341844
vt 0.971731 0.341844
vt 0.485388 0.296822
vt 0.985388 0.296822
vt 0.490000 0.250000
vt 0.990000 0.250000
vt 0.485388 0.203178
vt 0.985388 0.203178
vt 0.471731 0.158156
vt 0.971731 0.158156
vt 0.449553 0.116663
vt 0.949553 0.116663
vt 0.419706 0.080294
vt 0.919706 0.080294
vt 0.383337 0.050447
vt 0.883337 0.050447
vt 0.341844 0.028269
vt 0.841844 0.028269
vt 0.296822 0.014612
vt 0.796822 0.014612
vt 0.250000 0.010000
vt 0.750000 0.010000
vt 0.203178 0.014612
vt 0.703178 0.014612
vt 0.158156 0.028269
vt 0.658156 0.028269
vt 0.116663 0.050447
vt 0.616663 0.050447
vt 0.080294 0.080294
vt 0.580294 0.080294
vt 0.050447 0.116663
vt 0.550447 0.116663
vt 0.028269 0.158156
vt 0.528269 0.158156
vt 0.014612 0.203178
vt 0.514612 0.203178
vt 0.010000 0.250000
vt 0.510000 0.250000
vt 0.014612 0.296822
vt 0.514612 0.296822
vt 0.028269 0.341844
vt 0.528269 0.341844
vt 0.050447 0.383337
vt 0.550447 0.383337
vt 0.080294 0.419706
vt 0.580294 0.419706
vt 0.116663 0.449553
vt 0.616663 0.449553
vt 0.658156 0.471731
vt 0.158156 0.471731
vt 0.703178 0.485388
vt 0.203178 0.485388
vt 0.250000 0.250000
vt 0.750000 0.490000
vt 0.250000 0.490000
vt 0.296822 0.485388
vt 0.796822 0.485388
vt 0.341844 0.471731
vt 0.841844 0.471731
vt 0.383337 0.449553
vt 0.883337 0.449553
vt 0.419706 0.419706
vt 0.919706 0.419706
vt 0.449553 0.383337
vt 0.949553 0.383337
vt 0.471731 0.341844
vt 0.971731 0.341844
vt 0.485388 0.296822
vt 0.985388 0.296822
vt 0.490000 0.250000
vt 0.990000 0.250000
vt 0.485388 0.203178
vt 0.985388 0.203178
vt 0.471731 0.158156
vt 0.971731 0.158156
vt 0.449553 0.116663
vt 0.949553 0.116663
vt 0.419706 0.080294
vt 0.919706 0.080294
vt 0.383337 0.050447
vt 0.883337 0.050447
vt 0.341844 0.028269
vt 0.841844 0.028269
vt 0.296822 0.014612
vt 0.796822 0.014612
vt 0.250000 0.010000
vt 0.750000 0.010000
vt 0.203178 0.014612
vt 0.703178 0.014612
vt 0.158156 0.028269
vt 0.658156 0.028269
vt 0.116663 0.050447
vt 0.616663 0.050447
vt 0.080294 0.080294
vt 0.580294 0.080294
vt 0.050447 0.116663
vt 0.550447 0.116663
vt 0.028269 0.158156
vt 0.528269 0.158156
vt 0.014612 0.203178
vt 0.514612 0.203178
vt 0.010000 0.250000
vt 0.510000 0.250000
vt 0.014612 0.296822
vt 0.514612 0.296822
vt 0.028269 0.341844
vt 0.528269 0.341844
vt 0.050447 0.383337
vt 0.550447 0.383337
vt 0.080294 0.419706
vt 0.580294 0.419706
vt 0.116663 0.449553
vt 0.616663 0.449553
vt 0.658156 0.471731
vt 0.158156 0.471731
vt 0.703178 0.485388
vt 0.203178 0.485388
vt 0.250000 0.250000
s 0
f 1/2/1 33/65/1 2/3/1
f 2/3/2 33/65/2 3/5/2
f 3/5/3 33/65/3 4/7/3
f 4/7/4 33/65/4 5/9/4
f 5/9/5 33/65/5 6/11/5
f 6/11/6 33/65/6 7/13/6
f 7/13/7 33/65/7 8/15/7
f 8/15/8 33/65/8 9/17/8
f 9/17/9 33/65/9 10/19/9
f 10/19/10 33/65/10 11/21/10
f 11/21/11 33/65/11 12/23/11
f 12/23/12 33/65/12 13/25/12
f 13/25/13 33/65/13 14/27/13
f 14/27/14 33/65/14 15/29/14
f 15/29/15 33/65/15 16/31/15
f 16/31/16 33/65/16 17/33/16
f 17/33/17 33/65/17 18/35/17
f 18/35/18 33/65/18 19/37/18
f 19/37/19 33/65/19 20/39/19
f 20/39/20 33/65/20 21/41/20
f 21/41/21 33/65/21 22/43/21
f 22/43/22 33/65/22 23/45/22
f 23/45/23 33/65/23 24/47/23
f 24/47/24 33/65/24 25/49/24
f 25/49/25 33/65/25 26/51/25
f 26/51/26 33/65/26 27/53/26
f 27/53/27 33/65/27 28/55/27
f 28/55/28 33/65/28 29/57/28
f 29/57/29 33/65/29 30/59/29
f 30/59/30 33/65/30 31/62/30
f 1/1/31 2/4/31 3/6/31 4/8/31 5/10/31 6/12/31 7/14/31 8/16/31 9/18/31 10/20/31 11/22/31 12/24/31 13/26/31 14/28/31 15/30/31 16/32/31 17/34/31 18/36/31 19/38/31 20/40/31 21/42/31 22/44/31 23/46/31 24/48/31 25/50/31 26/52/31 27/54/31 28/56/31 29/58/31 30/60/31 31/61/31 32/63/31
f 31/62/32 33/65/32 32/64/32
f 32/64/33 33/65/33 1/2/33
f 34/67/1 66/130/1 35/68/1
f 35/68/2 66/130/2 36/70/2
f 36/70/3 66/130/3 37/72/3
f 37/72/4 66/130/4 38/74/4
f 38/74/5 66/130/5 39/76/5
f 39/76/6 66/130/6 40/78/6
f 40/78/7 66/130/7 41/80/7
f 41/80/8 66/130/8 42/82/8
f 42/82/9 66/130/9 43/84/9
f 43/84/10 66/130/10 44/86/10
f 44/86/11 66/130/11 45/88/11
f 45/88/12 66/130/12 46/90/12
f 46/90/13 66/130/13 47/92/13
f 47/92/14 66/130/14 48/94/14
f 48/94/15 66/130/15 49/96/15
f 49/96/16 66/130/16 50/98/16
f 50/98/17 66/130/17 51/100/17
f 51/100/18 66/130/18 52/102/18
f 52/102/19 66/130/19 53/104/19
f 53/104/20 66/130/20 54/106/20
f 54/106/21 66/130/21 55/108/21
f 55/108/22 66/130/22 56/110/22
f 56/110/23 66/130/23 57/112/23
f 57/112/24 66/130/24 58/114/24
f 58/114/25 66/130/25 59/116/25
f 59/116/26 66/130/26 60/118/26
f 60/118/27 66/130/27 61/120/27
f 61/120/28 66/130/28 62/122/28
f 62/122/29 66/130/29 63/124/29
f 63/124/30 66/130/30 64/127/30
f 34/66/31 35/69/31 36/71/31 37/73/31 38/75/31 39/77/31 40/79/31 41/81/31 42/83/31 43/85/31 44/87/31 45/89/31 46/91/31 47/93/31 48/95/31 49/97/31 50/99/31 51/101/31 52/103/31 53/105/31 54/107/31 55/109/31 56/111/31 57/113/31 58/115/31 59/117/31 60/119/31 61/121/31 62/123/31 63/125/31 64/126/31 65/128/31
f 64/127/32 66/130/32 65/129/32
f 65/129/33 66/130/33 34/67/33
